<?xml version="1.0" encoding="UTF-8"?>
<svg id="Layer_1" data-name="Layer 1" xmlns="http://www.w3.org/2000/svg" viewBox="0 0 17.03 11.08">
  <defs>
    <style>
      .cls-1 {
        fill: #e37027;
      }
    </style>
  </defs>
  <path class="cls-1" d="m1.13,4.73h0c.62,0,1.12.5,1.12,1.12v5.23H0v-5.23c0-.62.5-1.12,1.12-1.12h0Z"/>
  <path class="cls-1" d="m4.82,1.73h0c.62,0,1.12.5,1.12,1.12v8.23h-2.25V2.85c0-.62.5-1.12,1.12-1.12h0Z"/>
  <path class="cls-1" d="m8.52,0h0c.62,0,1.12.5,1.12,1.12v9.96h-2.25V1.12C7.39.5,7.89,0,8.51,0h0Z"/>
  <path class="cls-1" d="m12.21,3.14h0c.62,0,1.12.5,1.12,1.12v6.82h-2.25v-6.82c0-.62.5-1.12,1.12-1.12h0Z"/>
  <path class="cls-1" d="m15.91,5.75h0c.62,0,1.12.5,1.12,1.12v4.21h-2.25v-4.21c0-.62.5-1.12,1.12-1.12h0Z"/>
</svg>